<?xml version="1.0" encoding="UTF-8" standalone="no"?>
<!-- Created with Inkscape (http://www.inkscape.org/) -->

<svg
   xmlns:dc="http://purl.org/dc/elements/1.1/"
   xmlns:cc="http://creativecommons.org/ns#"
   xmlns:rdf="http://www.w3.org/1999/02/22-rdf-syntax-ns#"
   xmlns:svg="http://www.w3.org/2000/svg"
   xmlns="http://www.w3.org/2000/svg"
   xmlns:sodipodi="http://sodipodi.sourceforge.net/DTD/sodipodi-0.dtd"
   xmlns:inkscape="http://www.inkscape.org/namespaces/inkscape"
   version="1.1"
   id="svg2"
   width="1456"
   height="420.26666"
   viewBox="0 0 1456 420.26666"
   sodipodi:docname="firmas.svg"
   inkscape:version="0.92.3 (d244b95, 2018-08-02)">
  <metadata
     id="metadata8">
    <rdf:RDF>
      <cc:Work
         rdf:about="">
        <dc:format>image/svg+xml</dc:format>
        <dc:type
           rdf:resource="http://purl.org/dc/dcmitype/StillImage" />
        <dc:title></dc:title>
      </cc:Work>
    </rdf:RDF>
  </metadata>
  <defs
     id="defs6">
    <clipPath
       clipPathUnits="userSpaceOnUse"
       id="clipPath217">
      <rect
         style="fill:#000000;fill-opacity:0"
         id="rect219"
         width="193.5"
         height="80.25"
         x="241.25"
         y="210.76666"
         ry="13" />
    </clipPath>
  </defs>
  <sodipodi:namedview
     pagecolor="#ffffff"
     bordercolor="#666666"
     borderopacity="1"
     objecttolerance="10"
     gridtolerance="10"
     guidetolerance="10"
     inkscape:pageopacity="0"
     inkscape:pageshadow="2"
     inkscape:window-width="1920"
     inkscape:window-height="1012"
     id="namedview4"
     showgrid="false"
     inkscape:snap-intersection-paths="false"
     inkscape:object-paths="true"
     inkscape:snap-others="false"
     inkscape:object-nodes="false"
     inkscape:snap-bbox="true"
     inkscape:zoom="1"
     inkscape:cx="358.13846"
     inkscape:cy="347.91016"
     inkscape:window-x="0"
     inkscape:window-y="32"
     inkscape:window-maximized="1"
     inkscape:current-layer="layer1" />
  <g
     inkscape:groupmode="layer"
     id="layer1"
     inkscape:label="Layer 1"
     style="display:inline">
    <path
       id="path83"
       style="fill:#101243;fill-opacity:0.85490196;stroke-width:1.0666666"
       d="m 653.25977,138.01367 c -0.90271,0.003 -1.82967,1.38031 -2.33789,3.86524 -1.21731,5.56324 -6.44437,8.06305 -6.80079,14.00586 1.06585,1.72458 2.02554,1.19791 3.9375,-2.16211 3.73887,-6.57062 4.19055,-4.20618 3.92969,20.54101 -0.18024,17.09806 0.11456,24.41352 1.05469,26.16406 1.74417,3.2477 3.1758,2.11871 4.02148,-3.16992 0.40204,-2.51419 1.99339,-5.82837 3.77149,-7.85351 3.43161,-3.90837 2.37386,-5.97089 -1.69532,-3.30469 l -2.47265,1.62109 -0.55859,-23.1289 c -0.30746,-12.72075 -0.91367,-23.98761 -1.34571,-25.03907 -0.4297,-1.04579 -0.96226,-1.54074 -1.5039,-1.53906 z m -18.75196,4.3711 c -1.06362,-0.31316 -6.93359,8.4455 -6.93359,10.3457 0,1.51391 1.70834,1.19915 3.1914,-0.58789 0.72499,-0.87353 1.74349,-1.32541 2.26368,-1.00391 0.52019,0.3215 0.94531,10.84425 0.94531,23.38477 0,13.16378 0.46676,24.031 1.10547,25.71094 1.2936,3.40243 1.9577,2.90703 5.75781,-4.29883 1.97215,-3.73962 2.44343,-5.59085 1.63086,-6.40039 -0.81131,-0.80829 -1.73897,-0.36326 -3.19531,1.52929 -2.049,2.66274 -2.05212,2.6366 -2.19141,-16.53515 -0.15551,-21.40571 -0.97768,-31.67444 -2.57422,-32.14453 z m -81.54883,0.67968 c -2.47616,0 -3.09614,0.55488 -3.63867,3.26758 -0.35959,1.79794 -3.53932,7.24113 -7.0664,12.0957 -3.52708,4.85457 -6.41211,9.31645 -6.41211,9.91602 0,2.07952 8.67213,16.85371 15.02929,25.60352 3.51441,4.83714 7.14091,10.60701 8.0586,12.82226 0.91769,2.21526 2.16973,4.64363 2.7832,5.39649 2.08806,2.56257 3.27244,0.6586 5.00977,-8.04688 0.95441,-4.78249 2.06187,-9.02085 2.45898,-9.41797 0.39712,-0.3971 2.43389,0.78302 4.52734,2.6211 3.68977,3.23966 5.87283,4.18622 5.85743,2.54101 -0.004,-0.44 -0.96359,-4.79081 -2.13282,-9.66797 -2.54248,-10.60543 -2.64052,-13.37541 -0.53711,-15.12109 2.62498,-2.17855 0.76596,-3.21094 -5.78515,-3.21094 -8.34463,0 -12.86914,1.00686 -12.86914,2.86133 0,1.182 1.34867,1.45229 5.97656,1.19922 l 5.97852,-0.32617 1.96484,7.46679 c 2.30227,8.74631 1.14976,11.3396 -2.1582,4.85547 -1.25237,-2.45486 -2.85092,-4.27289 -3.55274,-4.04101 -0.79071,0.26124 -1.52024,3.95975 -1.91797,9.72461 -0.35304,5.11688 -1.11975,9.78186 -1.70312,10.36523 -1.35593,1.35593 -19.94984,-25.98967 -21.74414,-31.97852 -1.14572,-3.82404 -1.04096,-4.5313 1.06445,-7.24804 1.28342,-1.65606 4.03299,-5.29146 6.11133,-8.07813 2.07835,-2.78666 4.16429,-5.0664 4.63476,-5.0664 0.47048,0 2.37122,2.36175 4.22461,5.25 6.39228,9.96152 9.78686,10.23385 4.60743,0.36914 -1.77665,-3.3838 -3.80498,-7.95235 -4.50782,-10.15235 -1.07483,-3.36443 -1.7519,-4 -4.26172,-4 z m 60.4668,6.64063 c -0.84275,-0.0718 -1.53425,0.24667 -2.0293,0.97851 -1.28875,1.90519 -0.0121,14.00308 1.58204,14.98829 0.6827,0.42194 2.31019,0.068 3.61523,-0.78711 1.30503,-0.85508 3.58886,-1.55469 5.07617,-1.55469 3.67848,0 3.42152,-1.95267 -1.02148,-7.77149 -2.78979,-3.65369 -5.3686,-5.69562 -7.22266,-5.85351 z m 3.48242,7.22461 c 0.58666,0 1.06641,0.47973 1.06641,1.0664 0,0.58666 -0.47975,1.06836 -1.06641,1.06836 -0.58667,0 -1.0664,-0.4817 -1.0664,-1.06836 0,-0.58667 0.47973,-1.0664 1.0664,-1.0664 z m 79.89063,2.16992 c -1.26318,-0.006 -2.69967,1.37066 -4.13672,4.1875 -2.54645,4.99148 -2.59676,5.37695 -0.72461,5.37695 0.78583,0 1.98659,-1.22681 2.66992,-2.72656 2.2797,-5.00342 3.36691,-1.61996 3.37891,10.52148 0.006,6.56538 0.3102,13.7375 0.67383,15.9375 0.38358,2.32059 1.26415,4 2.09961,4 2.02711,0 2.87786,-4.32756 1.54101,-7.84375 -1.63327,-4.29584 -1.38023,-10.51764 0.53906,-13.25781 0.91562,-1.30721 3.15045,-2.90187 5.00586,-3.86133 3.32404,-1.71894 3.43631,-1.96087 5.56641,0.98438 4.32835,5.9847 6.79765,8.49546 7.58398,7.71094 1.03503,-1.03263 -0.8475,-4.50498 -5.35156,-9.86524 L 712.06055,166 l -5.03907,2.44727 c -2.771,1.34626 -5.2408,2.24553 -5.48828,1.99804 -0.24748,-0.24747 -0.73628,-2.30933 -1.08593,-4.58203 -0.68611,-4.45964 -2.02436,-6.75562 -3.64844,-6.76367 z m -17.27344,2.14062 c -0.70588,0.0235 -3.1624,4.09906 -5.45703,9.05665 l -4.17188,9.01367 5.77344,6.31054 c 3.17463,3.47087 6.88731,7.79466 8.25196,9.60938 3.26859,4.34669 4.44423,4.16264 4.49023,-0.70117 0.0208,-2.2 0.72408,-5.19935 1.5625,-6.66602 2.0399,-3.56842 1.96899,-4.26562 -0.42969,-4.26562 -1.32152,0 -2.44168,1.18421 -3.21289,3.39648 l -1.18359,3.39648 -3.8086,-3.66406 c -7.70055,-7.40819 -7.1685,-9.48527 2.4375,-9.51367 3.04537,-0.009 5.7917,-0.42634 6.10157,-0.92773 0.30988,-0.50139 -0.68657,-2.06152 -2.21485,-3.4668 -1.52827,-1.40528 -3.69726,-4.59456 -4.81836,-7.08789 -1.12109,-2.49333 -2.61443,-4.51374 -3.32031,-4.49024 z m 0.59961,5.50586 c 1.45641,-0.17312 4.04684,4.38929 4.04688,6.71875 0,1.35926 -5.00956,0.85743 -6.41016,0.85743 -2.24969,0 0.26493,-4.73577 1.82031,-7.19141 0.15096,-0.23834 0.33491,-0.36004 0.54297,-0.38477 z m -91.83008,1.85352 c -1.04503,-0.0538 -2.5283,1.32383 -4.5332,4.08984 -5.13444,7.08359 -5.53056,7.78584 -4.80664,8.50977 0.35323,0.35322 2.07255,-0.72788 3.82031,-2.40234 1.74777,-1.67448 3.40575,-2.81496 3.68555,-2.53516 0.2798,0.2798 0.99317,4.77599 1.58594,9.99219 0.64598,5.68512 1.71176,10.118 2.66015,11.0664 1.39838,1.39838 1.94283,0.8205 4.68164,-4.9707 1.70427,-3.60368 3.40287,-6.24753 3.77539,-5.875 0.37251,0.37252 0.67774,3.47816 0.67774,6.90039 0,4.81975 0.36025,6.22266 1.59961,6.22266 1.31875,0 1.59961,-1.93288 1.59961,-10.9961 0,-11.06157 -1.376,-15.85779 -4.07227,-14.1914 -0.65786,0.40658 -2.22241,4.19996 -3.47656,8.42968 -1.25416,4.22972 -2.58661,8.17115 -2.96094,8.75782 -0.83477,1.30828 -2.0706,-7.46669 -2.19727,-15.60352 -0.0761,-4.89101 -0.69545,-7.32538 -2.03906,-7.39453 z m 24.45703,3.33984 c -0.85314,0.0531 -2.04695,1.18307 -3.75,3.20703 -3.38183,4.01909 -3.6775,6.75337 -0.62695,5.78516 1.17334,-0.37287 2.13281,-0.37896 2.13281,-0.0117 0,1.42137 2.27666,16.08144 2.69336,17.34375 0.24208,0.73333 1.03471,1.33399 1.76172,1.33399 1.45777,0 9.41211,-7.39477 9.41211,-8.75 0,-1.49544 -3.95617,-0.90996 -5.37109,0.79492 -2.38067,2.86852 -3.54872,-0.0775 -4.03125,-10.16992 -0.32139,-6.7219 -0.79879,-9.62166 -2.22071,-9.53321 z m -329.30273,40.7793 c -7.24648,-0.006 -22.06835,11.2243 -30.41406,23.4043 -9.01509,13.15686 -10.97976,22.09146 -7.42969,33.77929 1.63298,5.37623 3.45084,8.74699 6.36328,11.8086 2.24205,2.35688 4.56567,4.28515 5.16406,4.28515 2.32022,0 6.96507,-4.7991 14.67774,-15.16797 4.41704,-5.93822 6.97425,-8.09775 6.97425,-7.12936 0,0.96839 -0.15099,3.45036 -1.6266,7.84616 -1.47563,4.3958 -2.99027,10.22922 -3.36523,12.96485 -1.04891,7.65265 1.9216,5.55158 4.04492,-2.86133 1.45911,-5.7812 7.3987,-23.61648 10.00781,-30.05078 1.15955,-2.48267 2.98691,-2.94806 4.16992,-2.74805 1.38768,0.23459 0.86662,2.66944 0.88672,5.06641 -0.26851,2.23346 -0.423,10.97794 1.22461,13.14843 1.77062,2.3325 5.80972,2.4006 9.01953,0.15235 2.289,-1.60327 2.60223,-1.56894 4.83985,0.5332 4.23802,3.98141 10.3771,2.666 15.39453,-3.29688 1.44909,-1.72213 3.46231,-5.06329 4.39088,-4.84153 0.68965,0.16471 0.0363,4.55338 0.0525,6.7888 0.044,6.12115 6.36906,5.77741 12.84375,-0.69727 4.64765,-4.64764 4.87073,-10.30227 6.04654,-8.32029 0.88488,1.49159 0.87596,8.84238 2.8519,10.93748 4.75917,5.04618 8.4758,5.05785 15.04297,0.0449 5.60783,-5.8894 6.55376,-5.39733 6.96484,-1.17382 0.20521,2.10835 4.14719,6.00586 6.4043,6.00586 1.13006,0 3.77486,-1.5098 5.87695,-3.35547 l 4.18662,-4.18817 c 2.13012,1.29901 3.69388,2.10949 5.28213,2.75067 5.46701,1.38955 5.67113,1.90591 9.9414,-0.49414 2.36273,-1.32793 5.4389,-4.32626 6.83594,-6.66211 1.39702,-2.33585 3.62009,-5.52261 4.94141,-7.08203 2.34672,-2.76957 3.73674,-2.67821 5.71094,-2.39063 5.80784,0.0472 0.64446,-0.17376 -0.6875,3.47461 -0.35038,0.95972 -1.86523,4.77957 -0.7461,5.13477 1.11914,0.3552 4.03973,1.04576 5.89649,2.29687 5.5357,2.75117 6.52169,2.34608 5.25781,-0.0859 -0.36929,-0.71067 -1.01443,-2.61701 -4.26953,-4.38867 -3.67008,-1.99751 -1.93931,-3.52749 2.88672,-4.8457 5.89217,-1.60942 5.18722,-3.36601 -1.72266,-4.29492 -12.75582,-1.71477 -16.78237,-0.39268 -17.7793,5.84179 -1.26751,7.92658 -11.48333,13.73344 -16.07812,9.13868 -2.1385,-2.13849 -1.24311,-3.71279 4.46289,-7.84571 3.19294,-2.31267 4.5332,-4.05171 4.5332,-5.88086 0,-6.48488 -4.60031,-4.1164 -11.15429,5.74219 -8.75183,13.16464 -15.04514,16.28218 -16.90625,8.37695 -0.8469,-3.59732 -0.35499,-5.10143 5.39453,-16.5332 9.01218,-17.91897 11.55874,-24.65307 9.92578,-26.24023 -3.18865,-3.09922 -14.15387,15.46787 -17.66406,29.91015 -1.5144,6.2308 -2.60309,8.29999 -6.26368,11.89258 -5.89727,5.78774 -9.91596,6.58598 -13.76562,2.73633 -3.6442,-3.64421 -3.91626,-10.25154 -0.68945,-16.79297 5.89825,-11.95702 11.59255,-33.19773 9.47461,-35.34375 -0.54038,-0.54756 -1.23216,-0.74636 -1.53711,-0.44141 -0.30494,0.30494 -3.36122,8.70538 -6.79102,18.66797 -7.00886,20.35876 -12.36806,30.92997 -17.0957,33.72266 -4.3351,2.56081 -4.79942,1.37329 -3.91016,-9.99414 0.63911,-8.16975 0.51382,-9.49414 -0.9043,-9.49414 -1.00749,0 -3.05313,3.03817 -5.26171,7.81836 -3.72363,8.05923 -8.57817,12.93667 -12.19141,12.24804 -2.63777,-0.50273 -2.85909,-4.29004 -0.71289,-12.21875 1.32732,-4.90351 1.53106,-7.19551 0.71094,-8.01562 -1.68134,-0.26765 -1.75041,0.24261 -3.10352,4.4414 -3.43373,8.22426 -12.85034,18.66914 -13.26172,13.59375 -0.30148,-3.71956 0.47955,-9.28485 1.88672,-13.43164 0.86462,-2.54796 1.33578,-5.24908 1.04688,-6.00195 -0.69659,-1.81523 -5.17844,-0.63808 -6.02735,1.1582 -0.33633,0.71168 -0.49453,1.47657 -1.09961,1.47657 -1.99584,0 -2.2907,-2.98434 -0.55664,-5.63086 1.48254,-2.26264 1.50419,-2.76899 0.16211,-3.88282 -1.23952,-1.02871 -3.44667,-0.37526 -11.20703,3.31641 -6.35098,3.02123 -9.67064,5.19784 -9.68164,6.34961 -0.0186,1.95421 2.08945,3.04684 5.875,3.04688 3.473,0 4.21726,1.73053 2.12109,4.92968 -4.17433,6.37083 -19.08368,24.86394 -20.47656,25.39844 -0.83701,0.32119 -2.72517,-0.62165 -4.19727,-2.09375 -7.2641,-7.2641 -9.18524,-21.22018 -4.32812,-31.44336 6.48487,-13.64925 23.93262,-30.92383 31.23437,-30.92383 2.17185,0 2.57015,0.66341 3.18946,5.33203 1.00432,7.57095 2.5664,6.61111 2.5664,-1.57812 0,-6.37325 -0.19684,-6.96294 -2.51562,-7.54492 -0.41161,-0.10331 -0.86065,-0.1539 -1.34375,-0.1543 z m 46.48633,19.96094 c -0.35393,-0.0137 -0.85978,0.0999 -1.51563,0.35156 -0.9053,0.34739 -1.62887,1.72799 -1.60937,3.06641 l 0.0351,2.43164 2.125,-2.55078 c 1.72268,-2.06857 2.02664,-3.25785 0.96485,-3.29883 z m 52.76172,1.53125 c 0.70052,-0.0378 0.24844,2.44754 -1.44532,5.76758 -1.19923,2.35068 -2.64721,4.56277 -3.21875,4.91601 -1.32592,0.81947 0.80253,-5.4994 3.00196,-8.91015 0.78562,-1.21835 1.3437,-1.75627 1.66211,-1.77344 z m -97.6211,9.20898 c 0.35926,0.0183 0.66141,0.11844 0.86328,0.32031 0.33273,0.33272 -0.002,1.3363 -0.74414,2.23047 -0.68504,0.98273 -2.84146,2.45441 -4.28711,0.0977 0,-1.27955 2.6112,-2.72786 4.16797,-2.64844 z m 113.56836,7.64063 c 0.081,0.0543 0.0751,0.12313 0.11914,0.19531 0.0259,0.0481 0.0403,0.10198 0.0586,0.14844 0.0279,0.0722 0.0413,0.14807 0.0605,0.21679 0.0231,0.0684 0.0173,0.13997 0.0254,0.20508 0.005,0.0746 -0.0426,0.13188 -0.0625,0.19336 -0.0356,0.0868 -0.121,0.13445 -0.17578,0.19531 -0.094,0.0846 -0.21886,0.11413 -0.31836,0.16602 -0.10586,0.0454 -0.21941,0.0201 -0.32031,0.0293 -0.15194,-0.003 -0.30392,-0.0281 -0.44336,-0.041 -0.0669,0.003 -0.1049,-0.0469 -0.14844,-0.0664 -0.0274,-0.0366 -7.5e-4,-0.0861 -0.002,-0.12109 0.0154,-0.0569 0.0322,-0.1146 0.0527,-0.16992 0.0318,-0.13137 0.12702,-0.22597 0.18555,-0.33008 0.0735,-0.0951 0.17249,-0.16446 0.25195,-0.24023 0.0991,-0.0858 0.21591,-0.14261 0.31641,-0.20899 0.0559,-0.0299 0.11329,-0.0594 0.16992,-0.0879 0.10679,-0.0357 0.1269,-0.0658 0.23047,-0.084 z"
       inkscape:connector-curvature="0"
       clip-path="url(#clipPath217)"
       inkscape:transform-center-x="89.877237"
       inkscape:transform-center-y="74.302654"
       transform="matrix(4.7303804,0,0,5.3073347,-837.07055,-1117.3891)"
       sodipodi:nodetypes="ccccscccccccccscssscccscscssscccccccsssccccccscccscscsccccsccsssssccssccssccccccccscsccccccscccccccsccscccsccsccsssssscccccccscssccccccssscscsscccccccscssscssccccccccccccscsscssccssccscsssssccscccccsscccccccssssscccccccccccscccccccccccccccccccccccccccc" />
  </g>
</svg>
